<svg xmlns="http://www.w3.org/2000/svg" version="1.1" xmlns:xlink="http://www.w3.org/1999/xlink" xmlns:svgjs="http://svgjs.dev/svgjs" width="1500" height="5000" preserveAspectRatio="none" viewBox="0 0 1500 5000"><g mask="url(&quot;#SvgjsMask1043&quot;)" fill="none"><rect width="1500" height="5000" x="0" y="0" fill="rgba(6, 0, 28, 1)"></rect><path d="M280.267,3989.069C408.969,3995.748,547.299,3966.818,616.337,3857.994C689.46,3742.73,683.74,3588.07,605.716,3476.066C536.159,3376.216,401.686,3367.463,280.267,3375.565C175.721,3382.541,77.661,3426.07,22.253,3515C-36.655,3609.549,-53.62,3728.143,-0.367,3825.989C55.066,3927.841,164.463,3983.059,280.267,3989.069" fill="rgba(181, 20, 20, 0.4)" class="triangle-float3"></path><path d="M443.2913128071733 4026.2426792028573L577.2722766676811 3794.180842549408 345.21044001423206 3660.1998786889003 211.22947615372425 3892.2617153423494z" fill="rgba(181, 20, 20, 0.4)" class="triangle-float1"></path><path d="M922.6855743176567 4780.085957169878L886.9878943817747 4524.315339126683 706.6952107555097 4660.175621077157z" fill="rgba(181, 20, 20, 0.4)" class="triangle-float3"></path><path d="M497.6356437583134 4537.920989207131L669.5421343332081 4757.9512633381455 717.6659178893278 4366.014498632237z" fill="rgba(181, 20, 20, 0.4)" class="triangle-float3"></path><path d="M1356.682,3759.685C1461.49,3754.509,1538.278,3674.22,1592.225,3584.213C1648.228,3490.776,1692.921,3379.787,1642.141,3283.412C1588.726,3182.035,1471.073,3130.462,1356.682,3137.175C1252.461,3143.291,1177.069,3223.979,1123.899,3313.825C1069.402,3405.913,1027.552,3514.797,1077.076,3609.652C1129.544,3710.146,1243.454,3765.277,1356.682,3759.685" fill="rgba(181, 20, 20, 0.4)" class="triangle-float2"></path><path d="M881.2744962554011 4458.578994305289L1057.2911840402226 4634.59568209011 1233.307871825044 4458.578994305289 1057.2911840402226 4282.562306520467z" fill="rgba(181, 20, 20, 0.4)" class="triangle-float1"></path><path d="M957.4052816086783 586.0664238894251L853.5277958516422 830.7864444659617 1098.2478164281788 934.6639302229978 1202.1253021852149 689.9439096464612z" fill="rgba(181, 20, 20, 0.4)" class="triangle-float2"></path><path d="M1099.6587088127371 290.7949762511587L1227.855871022806 686.6284653327061 1475.9090815525442 420.62396393944937z" fill="rgba(181, 20, 20, 0.4)" class="triangle-float3"></path><path d="M161.13486121076997 867.7112717718389L297.7864460381678 631.0237839159774-125.57057815932316 544.3901506028114z" fill="rgba(181, 20, 20, 0.4)" class="triangle-float3"></path><path d="M656.0034176683864 4506.660093007654L898.5082227331613 4493.950954708742 758.1921127524062 4136.548316261035z" fill="rgba(181, 20, 20, 0.4)" class="triangle-float1"></path></g><defs><mask id="SvgjsMask1043"><rect width="1500" height="5000" fill="#ffffff"></rect></mask><style>
                @keyframes float1 {
                    0%{transform: translate(0, 0)}
                    50%{transform: translate(-10px, 0)}
                    100%{transform: translate(0, 0)}
                }

                .triangle-float1 {
                    animation: float1 5s infinite;
                }

                @keyframes float2 {
                    0%{transform: translate(0, 0)}
                    50%{transform: translate(-5px, -5px)}
                    100%{transform: translate(0, 0)}
                }

                .triangle-float2 {
                    animation: float2 4s infinite;
                }

                @keyframes float3 {
                    0%{transform: translate(0, 0)}
                    50%{transform: translate(0, -10px)}
                    100%{transform: translate(0, 0)}
                }

                .triangle-float3 {
                    animation: float3 6s infinite;
                }
            </style></defs></svg>